<?xml version="1.0" encoding="utf-8"?>
<!-- Generator: Adobe Illustrator 25.4.1, SVG Export Plug-In . SVG Version: 6.00 Build 0)  -->
<svg version="1.1" id="Layer_1" xmlns="http://www.w3.org/2000/svg" xmlns:xlink="http://www.w3.org/1999/xlink" x="0px" y="0px"
	 width="153px" height="171px" viewBox="0 0 153 171" style="enable-background:new 0 0 153 171;" xml:space="preserve">
<style type="text/css">
	.st0{fill:#241F21;}
</style>
<g id="_x23_241f21ff">
	<path class="st0" d="M70.3,34.2c8.9-3.6,19.6-1.7,26.8,4.8c9.7,8.7,18.6,18.2,27.1,27.9c4.9,5.5,8.5,12.7,7.4,20.3
		c-1.2,8.1-5.3,15.8-10.8,21.8c0.5,0.9,1.1,1.7,1.1,2.8c-1.1,0.3-1.9-0.5-2.8-0.9c-2.5,3.8-6.1,6.8-9,10.3
		c-6.2,7.5-13,14.9-22.2,18.6c-9.3,3.8-20,1.6-28.5-3.2c-10.4-6-17.8-15.5-25.4-24.5c-5.5-6.7-9.7-15.2-8.6-24.1
		c1.2-10.5,7.8-19.2,13.9-27.4C47.7,49.8,57.4,39.2,70.3,34.2 M81.7,47.9C76,50.6,70.8,55,67.5,60.5c-2.4,4.2-4.4,9.3-2.8,14.1
		c1.3,3.5,5.1,4.8,8.4,5.4c-9.6,8.1-19.8,17.2-22.8,29.9c-1.6,5.3,0.9,12.3,6.6,13.9c5.5,1.3,9-4.5,14.1-4.9
		c5.5-0.4,11.2-0.7,16.5-2.6c3.5-1.3,7.7-2.7,9.1-6.5c-2.7-0.1-5.2,1.1-7.8,1.8c-5.8,1.5-11.9,2.2-17.9,1.4
		c-3.5-0.6-7.3-2.3-8.6-5.9c-1.6-4.6,0.4-9.6,3.4-13.2c5.5-6.6,13-11.1,19.8-16.2c4.5-3.5,9.3-6.6,13.6-10.3
		c2.3-1.9,3.9-4.7,3.9-7.8c-4.1,0.8-7.2,4-10.6,6.2c-4.8,3.4-10.9,5.6-16.7,4.2c-2.7-0.6-5.4-2.9-5-5.9c0.7-4.9,5.9-9.4,10.9-8
		c2.4,1,2.4,3.8,3.3,5.9c3.2-2.4,6.7-5.7,7.1-9.9C91.6,47.1,85.5,46.2,81.7,47.9 M99.6,108.7c1.9-1.1,3.9-2.4,4.6-4.6
		C102.2,105.1,99.8,106.2,99.6,108.7 M65.8,125.3c4.3,0.6,9.6-0.4,12.5-3.9C73.8,121.2,68.5,121,65.8,125.3z"/>
	<path class="st0" d="M23.5,96.8c-2.1-6.2-1.8-13.6,2.3-18.9C24.1,84,22,90.5,24.5,96.8C24.2,96.8,23.8,96.8,23.5,96.8z"/>
	<path class="st0" d="M109.6,124.4c2.4-4.8,6.4-8.8,10.7-12.1C117.3,116.9,113.9,121.3,109.6,124.4z"/>
</g>
</svg>
